<svg xmlns="http://www.w3.org/2000/svg" width="110" height="190"><rect x="0" y="0" width="100%" height="100%" fill="rgb(134,73,74)"></rect><polyline points="18.333333333333336,0,36.66666666666667,31.75426480542942,0,31.75426480542942,18.333333333333336,0" fill="#222" fill-opacity="0.06333333333333334" stroke="#000" stroke-opacity="0.02" transform="translate(-18.333333333333336,0) rotate(180,18.333333333333336,15.87713240271471)"></polyline><polyline points="18.333333333333336,0,36.66666666666667,31.75426480542942,0,31.75426480542942,18.333333333333336,0" fill="#222" fill-opacity="0.06333333333333334" stroke="#000" stroke-opacity="0.02" transform="translate(91.66666666666669,0) rotate(180,18.333333333333336,15.87713240271471)"></polyline><polyline points="18.333333333333336,0,36.66666666666667,31.75426480542942,0,31.75426480542942,18.333333333333336,0" fill="#222" fill-opacity="0.046" stroke="#000" stroke-opacity="0.02" transform="translate(0,0) rotate(0,18.333333333333336,15.87713240271471)"></polyline><polyline points="18.333333333333336,0,36.66666666666667,31.75426480542942,0,31.75426480542942,18.333333333333336,0" fill="#222" fill-opacity="0.028666666666666667" stroke="#000" stroke-opacity="0.02" transform="translate(18.333333333333336,0) rotate(180,18.333333333333336,15.87713240271471)"></polyline><polyline points="18.333333333333336,0,36.66666666666667,31.75426480542942,0,31.75426480542942,18.333333333333336,0" fill="#ddd" fill-opacity="0.12400000000000001" stroke="#000" stroke-opacity="0.02" transform="translate(36.66666666666667,0) rotate(0,18.333333333333336,15.87713240271471)"></polyline><polyline points="18.333333333333336,0,36.66666666666667,31.75426480542942,0,31.75426480542942,18.333333333333336,0" fill="#222" fill-opacity="0.06333333333333334" stroke="#000" stroke-opacity="0.02" transform="translate(55.00000000000001,0) rotate(180,18.333333333333336,15.87713240271471)"></polyline><polyline points="18.333333333333336,0,36.66666666666667,31.75426480542942,0,31.75426480542942,18.333333333333336,0" fill="#222" fill-opacity="0.08066666666666666" stroke="#000" stroke-opacity="0.02" transform="translate(73.33333333333334,0) rotate(0,18.333333333333336,15.87713240271471)"></polyline><polyline points="18.333333333333336,0,36.66666666666667,31.75426480542942,0,31.75426480542942,18.333333333333336,0" fill="#222" fill-opacity="0.098" stroke="#000" stroke-opacity="0.02" transform="translate(-18.333333333333336,31.75426480542942) rotate(0,18.333333333333336,15.87713240271471)"></polyline><polyline points="18.333333333333336,0,36.66666666666667,31.75426480542942,0,31.75426480542942,18.333333333333336,0" fill="#222" fill-opacity="0.098" stroke="#000" stroke-opacity="0.02" transform="translate(91.66666666666669,31.75426480542942) rotate(0,18.333333333333336,15.87713240271471)"></polyline><polyline points="18.333333333333336,0,36.66666666666667,31.75426480542942,0,31.75426480542942,18.333333333333336,0" fill="#ddd" fill-opacity="0.08933333333333333" stroke="#000" stroke-opacity="0.02" transform="translate(0,31.75426480542942) rotate(180,18.333333333333336,15.87713240271471)"></polyline><polyline points="18.333333333333336,0,36.66666666666667,31.75426480542942,0,31.75426480542942,18.333333333333336,0" fill="#ddd" fill-opacity="0.07200000000000001" stroke="#000" stroke-opacity="0.02" transform="translate(18.333333333333336,31.75426480542942) rotate(0,18.333333333333336,15.87713240271471)"></polyline><polyline points="18.333333333333336,0,36.66666666666667,31.75426480542942,0,31.75426480542942,18.333333333333336,0" fill="#ddd" fill-opacity="0.02" stroke="#000" stroke-opacity="0.02" transform="translate(36.66666666666667,31.75426480542942) rotate(180,18.333333333333336,15.87713240271471)"></polyline><polyline points="18.333333333333336,0,36.66666666666667,31.75426480542942,0,31.75426480542942,18.333333333333336,0" fill="#222" fill-opacity="0.028666666666666667" stroke="#000" stroke-opacity="0.02" transform="translate(55.00000000000001,31.75426480542942) rotate(0,18.333333333333336,15.87713240271471)"></polyline><polyline points="18.333333333333336,0,36.66666666666667,31.75426480542942,0,31.75426480542942,18.333333333333336,0" fill="#222" fill-opacity="0.11533333333333334" stroke="#000" stroke-opacity="0.02" transform="translate(73.33333333333334,31.75426480542942) rotate(180,18.333333333333336,15.87713240271471)"></polyline><polyline points="18.333333333333336,0,36.66666666666667,31.75426480542942,0,31.75426480542942,18.333333333333336,0" fill="#222" fill-opacity="0.098" stroke="#000" stroke-opacity="0.02" transform="translate(-18.333333333333336,63.50852961085884) rotate(180,18.333333333333336,15.87713240271471)"></polyline><polyline points="18.333333333333336,0,36.66666666666667,31.75426480542942,0,31.75426480542942,18.333333333333336,0" fill="#222" fill-opacity="0.098" stroke="#000" stroke-opacity="0.02" transform="translate(91.66666666666669,63.50852961085884) rotate(180,18.333333333333336,15.87713240271471)"></polyline><polyline points="18.333333333333336,0,36.66666666666667,31.75426480542942,0,31.75426480542942,18.333333333333336,0" fill="#ddd" fill-opacity="0.07200000000000001" stroke="#000" stroke-opacity="0.02" transform="translate(0,63.50852961085884) rotate(0,18.333333333333336,15.87713240271471)"></polyline><polyline points="18.333333333333336,0,36.66666666666667,31.75426480542942,0,31.75426480542942,18.333333333333336,0" fill="#ddd" fill-opacity="0.02" stroke="#000" stroke-opacity="0.02" transform="translate(18.333333333333336,63.50852961085884) rotate(180,18.333333333333336,15.87713240271471)"></polyline><polyline points="18.333333333333336,0,36.66666666666667,31.75426480542942,0,31.75426480542942,18.333333333333336,0" fill="#ddd" fill-opacity="0.02" stroke="#000" stroke-opacity="0.02" transform="translate(36.66666666666667,63.50852961085884) rotate(0,18.333333333333336,15.87713240271471)"></polyline><polyline points="18.333333333333336,0,36.66666666666667,31.75426480542942,0,31.75426480542942,18.333333333333336,0" fill="#222" fill-opacity="0.028666666666666667" stroke="#000" stroke-opacity="0.02" transform="translate(55.00000000000001,63.50852961085884) rotate(180,18.333333333333336,15.87713240271471)"></polyline><polyline points="18.333333333333336,0,36.66666666666667,31.75426480542942,0,31.75426480542942,18.333333333333336,0" fill="#222" fill-opacity="0.13266666666666665" stroke="#000" stroke-opacity="0.02" transform="translate(73.33333333333334,63.50852961085884) rotate(0,18.333333333333336,15.87713240271471)"></polyline><polyline points="18.333333333333336,0,36.66666666666667,31.75426480542942,0,31.75426480542942,18.333333333333336,0" fill="#ddd" fill-opacity="0.07200000000000001" stroke="#000" stroke-opacity="0.02" transform="translate(-18.333333333333336,95.26279441628826) rotate(0,18.333333333333336,15.87713240271471)"></polyline><polyline points="18.333333333333336,0,36.66666666666667,31.75426480542942,0,31.75426480542942,18.333333333333336,0" fill="#ddd" fill-opacity="0.07200000000000001" stroke="#000" stroke-opacity="0.02" transform="translate(91.66666666666669,95.26279441628826) rotate(0,18.333333333333336,15.87713240271471)"></polyline><polyline points="18.333333333333336,0,36.66666666666667,31.75426480542942,0,31.75426480542942,18.333333333333336,0" fill="#ddd" fill-opacity="0.14133333333333334" stroke="#000" stroke-opacity="0.02" transform="translate(0,95.26279441628826) rotate(180,18.333333333333336,15.87713240271471)"></polyline><polyline points="18.333333333333336,0,36.66666666666667,31.75426480542942,0,31.75426480542942,18.333333333333336,0" fill="#ddd" fill-opacity="0.08933333333333333" stroke="#000" stroke-opacity="0.02" transform="translate(18.333333333333336,95.26279441628826) rotate(0,18.333333333333336,15.87713240271471)"></polyline><polyline points="18.333333333333336,0,36.66666666666667,31.75426480542942,0,31.75426480542942,18.333333333333336,0" fill="#ddd" fill-opacity="0.14133333333333334" stroke="#000" stroke-opacity="0.02" transform="translate(36.66666666666667,95.26279441628826) rotate(180,18.333333333333336,15.87713240271471)"></polyline><polyline points="18.333333333333336,0,36.66666666666667,31.75426480542942,0,31.75426480542942,18.333333333333336,0" fill="#ddd" fill-opacity="0.14133333333333334" stroke="#000" stroke-opacity="0.02" transform="translate(55.00000000000001,95.26279441628826) rotate(0,18.333333333333336,15.87713240271471)"></polyline><polyline points="18.333333333333336,0,36.66666666666667,31.75426480542942,0,31.75426480542942,18.333333333333336,0" fill="#ddd" fill-opacity="0.02" stroke="#000" stroke-opacity="0.02" transform="translate(73.33333333333334,95.26279441628826) rotate(180,18.333333333333336,15.87713240271471)"></polyline><polyline points="18.333333333333336,0,36.66666666666667,31.75426480542942,0,31.75426480542942,18.333333333333336,0" fill="#ddd" fill-opacity="0.05466666666666667" stroke="#000" stroke-opacity="0.02" transform="translate(-18.333333333333336,127.01705922171767) rotate(180,18.333333333333336,15.87713240271471)"></polyline><polyline points="18.333333333333336,0,36.66666666666667,31.75426480542942,0,31.75426480542942,18.333333333333336,0" fill="#ddd" fill-opacity="0.05466666666666667" stroke="#000" stroke-opacity="0.02" transform="translate(91.66666666666669,127.01705922171767) rotate(180,18.333333333333336,15.87713240271471)"></polyline><polyline points="18.333333333333336,0,36.66666666666667,31.75426480542942,0,31.75426480542942,18.333333333333336,0" fill="#222" fill-opacity="0.046" stroke="#000" stroke-opacity="0.02" transform="translate(0,127.01705922171767) rotate(0,18.333333333333336,15.87713240271471)"></polyline><polyline points="18.333333333333336,0,36.66666666666667,31.75426480542942,0,31.75426480542942,18.333333333333336,0" fill="#222" fill-opacity="0.13266666666666665" stroke="#000" stroke-opacity="0.02" transform="translate(18.333333333333336,127.01705922171767) rotate(180,18.333333333333336,15.87713240271471)"></polyline><polyline points="18.333333333333336,0,36.66666666666667,31.75426480542942,0,31.75426480542942,18.333333333333336,0" fill="#ddd" fill-opacity="0.02" stroke="#000" stroke-opacity="0.02" transform="translate(36.66666666666667,127.01705922171767) rotate(0,18.333333333333336,15.87713240271471)"></polyline><polyline points="18.333333333333336,0,36.66666666666667,31.75426480542942,0,31.75426480542942,18.333333333333336,0" fill="#222" fill-opacity="0.046" stroke="#000" stroke-opacity="0.02" transform="translate(55.00000000000001,127.01705922171767) rotate(180,18.333333333333336,15.87713240271471)"></polyline><polyline points="18.333333333333336,0,36.66666666666667,31.75426480542942,0,31.75426480542942,18.333333333333336,0" fill="#222" fill-opacity="0.098" stroke="#000" stroke-opacity="0.02" transform="translate(73.33333333333334,127.01705922171767) rotate(0,18.333333333333336,15.87713240271471)"></polyline><polyline points="18.333333333333336,0,36.66666666666667,31.75426480542942,0,31.75426480542942,18.333333333333336,0" fill="#ddd" fill-opacity="0.02" stroke="#000" stroke-opacity="0.02" transform="translate(-18.333333333333336,158.7713240271471) rotate(0,18.333333333333336,15.87713240271471)"></polyline><polyline points="18.333333333333336,0,36.66666666666667,31.75426480542942,0,31.75426480542942,18.333333333333336,0" fill="#ddd" fill-opacity="0.02" stroke="#000" stroke-opacity="0.02" transform="translate(91.66666666666669,158.7713240271471) rotate(0,18.333333333333336,15.87713240271471)"></polyline><polyline points="18.333333333333336,0,36.66666666666667,31.75426480542942,0,31.75426480542942,18.333333333333336,0" fill="#ddd" fill-opacity="0.03733333333333333" stroke="#000" stroke-opacity="0.02" transform="translate(0,158.7713240271471) rotate(180,18.333333333333336,15.87713240271471)"></polyline><polyline points="18.333333333333336,0,36.66666666666667,31.75426480542942,0,31.75426480542942,18.333333333333336,0" fill="#222" fill-opacity="0.15" stroke="#000" stroke-opacity="0.02" transform="translate(18.333333333333336,158.7713240271471) rotate(0,18.333333333333336,15.87713240271471)"></polyline><polyline points="18.333333333333336,0,36.66666666666667,31.75426480542942,0,31.75426480542942,18.333333333333336,0" fill="#222" fill-opacity="0.098" stroke="#000" stroke-opacity="0.02" transform="translate(36.66666666666667,158.7713240271471) rotate(180,18.333333333333336,15.87713240271471)"></polyline><polyline points="18.333333333333336,0,36.66666666666667,31.75426480542942,0,31.75426480542942,18.333333333333336,0" fill="#ddd" fill-opacity="0.10666666666666667" stroke="#000" stroke-opacity="0.02" transform="translate(55.00000000000001,158.7713240271471) rotate(0,18.333333333333336,15.87713240271471)"></polyline><polyline points="18.333333333333336,0,36.66666666666667,31.75426480542942,0,31.75426480542942,18.333333333333336,0" fill="#222" fill-opacity="0.098" stroke="#000" stroke-opacity="0.02" transform="translate(73.33333333333334,158.7713240271471) rotate(180,18.333333333333336,15.87713240271471)"></polyline></svg>